<?xml version="1.0" encoding="UTF-8"?>
<!-- Generator: Adobe Illustrator 14.0.0, SVG Export Plug-In . SVG Version: 6.00 Build 43363)  -->
<!DOCTYPE svg PUBLIC "-//W3C//DTD SVG 1.0//EN" "http://www.w3.org/TR/2001/REC-SVG-20010904/DTD/svg10.dtd">
<svg version="1.0" id="Ebene_1" xmlns="http://www.w3.org/2000/svg" xmlns:xlink="http://www.w3.org/1999/xlink" x="0px" y="0px" width="408.792px" height="408.792px" viewBox="0 0 408.792 408.792" style="enable-background:new 0 0 408.792 408.792;" xml:space="preserve">
<style type="text/css">
<![CDATA[
	.st0{fill:#100069;}
	.st1{fill:#FFFFFF;}
	.st2{fill:none;stroke:#FFFFFF;stroke-linejoin:round;stroke-miterlimit:10;}
]]>
</style>
<path class="st0" d="M408.397,204.396c0-54.106-21.496-105.991-59.753-144.247c-38.256-38.256-90.14-59.753-144.247-59.753  c-54.106,0-105.991,21.497-144.247,59.753C21.895,98.406,0.397,150.29,0.397,204.396c0,54.107,21.497,105.991,59.753,144.247  c38.256,38.257,90.141,59.753,144.247,59.753c54.107,0,105.991-21.496,144.247-59.753  C386.901,310.387,408.397,258.503,408.397,204.396z"/>
<g>
	<path class="st1" d="M115.383,132.449c-1.162-5.036-2.195-7.489-4.261-10.071c-3.615-4.519-9.167-6.843-15.881-6.843   c-15.236,0-24.404,12.396-24.404,33.184c0,20.53,8.78,32.667,23.758,32.667c12.008,0,19.626-6.843,20.789-18.852h18.852   c-1.162,21.563-16.786,35.121-40.156,35.121c-26.211,0-42.61-18.98-42.61-49.195c0-30.472,16.527-49.453,43.126-49.453   c14.074,0,25.695,5.294,32.926,14.849c4.002,5.294,5.681,10.459,6.327,18.593H115.383z"/>
</g>
<g>
	<path class="st1" d="M236.808,56.048c8.393,9.039,13.17,22.208,13.17,36.928c0,13.299-5.035,26.986-13.17,35.637   c-8.135,8.78-18.723,13.041-32.151,13.041s-24.016-4.261-32.151-13.041c-8.393-8.909-13.17-22.208-13.17-36.283   s4.777-27.244,13.17-36.283c8.005-8.651,18.852-13.041,32.022-13.041C218.085,43.007,228.544,47.139,236.808,56.048z    M178.704,92.331c0,19.755,10.33,32.796,25.953,32.796c15.495,0,25.954-13.041,25.954-32.28c0-20.401-10.072-33.313-25.954-33.313   C189.034,59.535,178.704,72.576,178.704,92.331z"/>
</g>
<g>
	<path class="st1" d="M297.933,129.027v65.076h-19.368V99.975h19.885l37.315,64.043V99.975h19.368v94.128h-19.368L297.933,129.027z"/>
</g>
<g>
	<path class="st1" d="M102.665,306.102H83.297v-77.988H54.761v-16.14h75.406v16.14h-27.503V306.102z"/>
</g>
<g>
	<path class="st1" d="M190.906,233.962h51.002v16.14h-70.37v-94.128h68.046v16.14h-48.679v21.305h45.063v16.14h-45.063V233.962z"/>
</g>
<g>
	<path class="st1" d="M357.652,306.102h-22.983l-18.077-32.667l-17.947,32.667h-22.467l29.697-47.387l-28.664-46.741h22.982   l16.527,30.988l17.303-30.988h22.467l-29.052,46.096L357.652,306.102z"/>
</g>
<g>
	<path class="st1" d="M214.664,362.101h-19.368v-77.988H166.76v-16.14h75.406v16.14h-27.502V362.101z"/>
</g>
<rect x="36.397" y="92.396" class="st2" width="112" height="112"/>
<rect x="148.397" y="36.396" class="st2" width="112" height="112"/>
<rect x="260.397" y="92.396" class="st2" width="112" height="112"/>
<rect x="36.397" y="204.396" class="st2" width="112" height="112"/>
<rect x="148.397" y="148.396" class="st2" width="112" height="112"/>
<rect x="260.397" y="204.396" class="st2" width="112" height="112"/>
<rect x="148.397" y="260.396" class="st2" width="112" height="112"/>
</svg>